<svg xmlns="http://www.w3.org/2000/svg" width="1200" height="630" viewBox="0 0 1200 630">
  <defs>
    <linearGradient id="bg" x1="0" x2="0" y1="0" y2="1">
      <stop offset="0" stop-color="#0b1220"/>
      <stop offset="1" stop-color="#141a29"/>
    </linearGradient>
  </defs>
  <rect width="1200" height="630" fill="url(#bg)"/>
  <g transform="translate(100,120)">
    <rect x="0" y="0" width="240" height="240" rx="24" fill="#111827" stroke="#334155"/>
    <g transform="translate(45,40)" fill="#e5e7eb">
      <path d="M120 80h-10V70a10 10 0 0 0-10-10H30a10 10 0 0 0-10 10v40a40 40 0 0 0 40 40h30a40 40 0 0 0 40-40V100h10a15 15 0 0 0 0-30zm-20 30a30 30 0 0 1-30 30H50a30 30 0 0 1-30-30V70h80z"/>
      <path d="M60 20s10 7.5 10 15-10 15-10 25 10 15 10 25" stroke="#e5e7eb" stroke-width="6" fill="none" stroke-linecap="round"/>
    </g>
  </g>
  <text x="380" y="220" fill="#f9fafb" font-family="'Segoe UI', Tahoma, Arial, sans-serif" font-size="80" font-weight="700">Cafe Bardabar</text>
  <text x="380" y="300" fill="#cbd5e1" font-family="'Segoe UI', Tahoma, Arial, sans-serif" font-size="36">Уютное кафе с живой музыкой и авторскими коктейлями</text>
  <text x="380" y="360" fill="#94a3b8" font-family="'Segoe UI', Tahoma, Arial, sans-serif" font-size="28">Бронирование столиков и билетов онлайн</text>
</svg>